<?xml version="1.0" encoding="utf-8"?>
<!-- Generator: Adobe Illustrator 17.1.0, SVG Export Plug-In . SVG Version: 6.00 Build 0)  -->
<!DOCTYPE svg PUBLIC "-//W3C//DTD SVG 1.1//EN" "http://www.w3.org/Graphics/SVG/1.1/DTD/svg11.dtd">
<svg version="1.1" id="Layer_1" xmlns="http://www.w3.org/2000/svg" xmlns:xlink="http://www.w3.org/1999/xlink" x="0px" y="0px"
	 viewBox="0 0 24 50" enable-background="new 0 0 24 50" xml:space="preserve">
<g>
	<path fill="#FFFFFF" d="M3.047,20.651c-0.437-1.117-0.658-2.292-0.658-3.492c0-5.299,4.312-9.611,9.61-9.611
		c5.3,0,9.611,4.312,9.611,9.611c0,1.202-0.222,2.377-0.657,3.492l-8.954,21.117L3.047,20.651z"/>
	<path fill="#0046FE" d="M12,7.986c5.059,0,9.174,4.115,9.174,9.174c0,1.146-0.211,2.267-0.627,3.333l-0.026,0.066l-0.009,0.021
		c-0.041,0.103-0.085,0.206-0.139,0.327L12,40.65L3.62,20.892c-0.046-0.103-0.09-0.207-0.14-0.331l-0.002-0.004l-0.025-0.065
		c-0.416-1.066-0.627-2.187-0.627-3.333C2.826,12.101,6.941,7.986,12,7.986 M12,7.112c-5.549,0-10.047,4.498-10.047,10.048
		c0,1.288,0.245,2.518,0.687,3.651H2.637l0.039,0.093c0.046,0.116,0.095,0.232,0.146,0.345L12,42.888l9.178-21.64
		c0.052-0.114,0.101-0.229,0.147-0.345l0.039-0.093h-0.003c0.442-1.132,0.687-2.363,0.687-3.651C22.047,11.61,17.549,7.112,12,7.112
		L12,7.112z"/>
</g>
</svg>
