<?xml version="1.0" encoding="utf-8"?>
<!-- Generator: Adobe Illustrator 17.1.0, SVG Export Plug-In . SVG Version: 6.00 Build 0)  -->
<!DOCTYPE svg PUBLIC "-//W3C//DTD SVG 1.1//EN" "http://www.w3.org/Graphics/SVG/1.1/DTD/svg11.dtd">
<svg version="1.1" xmlns="http://www.w3.org/2000/svg" xmlns:xlink="http://www.w3.org/1999/xlink" x="0px" y="0px"
	 viewBox="0 0 1280 800" enable-background="new 0 0 1280 800" xml:space="preserve">
<g id="Layer_1">
	<rect x="-93" y="-175" fill="#0046FE" width="8006" height="1150"/>
	<g>
		<defs>
			<rect id="SVGID_1_" x="170.844" y="32.772" width="938.156" height="732.039"/>
		</defs>
		<clipPath id="SVGID_2_">
			<use xlink:href="#SVGID_1_"  overflow="visible"/>
		</clipPath>
		
			<rect x="164.192" y="712.004" transform="matrix(-0.1736 -0.9848 0.9848 -0.1736 -464.1462 1049.15)" clip-path="url(#SVGID_2_)" fill="none" width="87.815" height="14.609"/>
	</g>
	
		<rect x="848.395" y="168.55" transform="matrix(0.848 0.5299 -0.5299 0.848 227.6378 -443.881)" fill="none" stroke="#FFFFFF" stroke-width="1.7161" stroke-miterlimit="10" width="78.826" height="12.877"/>
	<g>
		<defs>
			<rect id="SVGID_3_" x="170.844" y="32.772" width="938.156" height="732.039"/>
		</defs>
		<clipPath id="SVGID_4_">
			<use xlink:href="#SVGID_3_"  overflow="visible"/>
		</clipPath>
		
			<rect x="1030.193" y="117.436" transform="matrix(0.8988 -0.4384 0.4384 0.8988 53.9454 481.417)" clip-path="url(#SVGID_4_)" fill="none" width="78.826" height="12.878"/>
	</g>
	
		<rect x="746.701" y="695.603" transform="matrix(0.5299 -0.848 0.848 0.5299 -225.8298 996.6718)" fill="none" stroke="#FFFFFF" stroke-width="1.7161" stroke-miterlimit="10" width="78.826" height="12.877"/>
	
		<rect x="477.147" y="124.099" transform="matrix(0.7193 0.6947 -0.6947 0.7193 233.401 -314.8732)" fill="none" stroke="#FFFFFF" stroke-width="1.7161" stroke-miterlimit="10" width="58.436" height="14.609"/>
	<g>
		<defs>
			<rect id="SVGID_5_" x="170.844" y="32.772" width="938.156" height="732.039"/>
		</defs>
		<clipPath id="SVGID_6_">
			<use xlink:href="#SVGID_5_"  overflow="visible"/>
		</clipPath>
		
			<rect x="367.597" y="45.989" transform="matrix(0.8988 -0.4384 0.4384 0.8988 16.7971 179.3434)" clip-path="url(#SVGID_6_)" fill="none" width="58.436" height="14.609"/>
	</g>
	
		<rect x="963.48" y="375.713" transform="matrix(0.7193 0.6947 -0.6947 0.7193 544.6857 -582.0922)" fill="none" stroke="#FFFFFF" stroke-width="1.7161" stroke-miterlimit="10" width="58.436" height="14.609"/>
	
		<rect x="674.124" y="58.951" transform="matrix(0.2249 -0.9744 0.9744 0.2249 479.0576 733.0357)" fill="none" stroke="#FFFFFF" stroke-width="1.7161" stroke-miterlimit="10" width="52.36" height="12.877"/>
	
		<rect x="892.82" y="59.321" transform="matrix(-0.5878 -0.809 0.809 -0.5878 1386.8462 839.8747)" fill="none" stroke="#FFFFFF" stroke-width="1.7161" stroke-miterlimit="10" width="29.138" height="14.608"/>
	
		<rect x="887.159" y="613.434" transform="matrix(0.4067 -0.9135 0.9135 0.4067 -32.107 1192.0354)" fill="none" stroke="#FFFFFF" stroke-width="1.7161" stroke-miterlimit="10" width="29.139" height="14.609"/>
	
		<rect x="1029.372" y="655.923" transform="matrix(0.4067 -0.9135 0.9135 0.4067 13.4463 1347.1606)" fill="none" stroke="#FFFFFF" stroke-width="1.7161" stroke-miterlimit="10" width="29.139" height="14.609"/>
	<g>
		<defs>
			<rect id="SVGID_7_" x="170.844" y="32.772" width="938.156" height="732.039"/>
		</defs>
		<clipPath id="SVGID_8_">
			<use xlink:href="#SVGID_7_"  overflow="visible"/>
		</clipPath>
		
			<rect x="168.374" y="248.997" transform="matrix(0.2756 0.9613 -0.9613 0.2756 378.8904 9.7998)" clip-path="url(#SVGID_8_)" fill="none" width="29.138" height="14.609"/>
	</g>
	
		<rect x="596.964" y="611.333" transform="matrix(0.9848 -0.1737 0.1737 0.9848 -98.1413 115.5994)" fill="none" stroke="#FFFFFF" stroke-width="1.7161" stroke-miterlimit="10" width="29.139" height="14.609"/>
	
		<rect x="343.425" y="196.997" transform="matrix(0.6428 -0.766 0.766 0.6428 -28.6251 347.2164)" fill="none" stroke="#FFFFFF" stroke-width="1.7161" stroke-miterlimit="10" width="29.138" height="14.609"/>
	
		<rect x="350.884" y="651.091" transform="matrix(0.9903 0.1392 -0.1392 0.9903 95.0639 -44.2462)" fill="none" stroke="#FFFFFF" stroke-width="1.7161" stroke-miterlimit="10" width="25.966" height="12.877"/>
	
		<rect x="81.304" y="333.654" transform="matrix(0.2079 -0.9781 0.9781 0.2079 -237.0425 387.4618)" fill="none" stroke="#FFFFFF" stroke-width="1.7161" stroke-miterlimit="10" width="78.826" height="12.878"/>
	
		<rect x="114.171" y="584.93" transform="matrix(-0.766 -0.6428 0.6428 -0.766 -108.8899 1143.105)" fill="none" stroke="#FFFFFF" stroke-width="1.7161" stroke-miterlimit="10" width="78.826" height="12.877"/>
	
		<rect x="229.587" y="283.388" transform="matrix(-0.848 -0.5299 0.5299 -0.848 343.5367 678.163)" fill="none" stroke="#FFFFFF" stroke-width="1.7161" stroke-miterlimit="10" width="78.826" height="12.877"/>
	
		<rect x="26.11" y="161.248" fill="none" stroke="#FFFFFF" stroke-width="1.7161" stroke-miterlimit="10" width="14.609" height="58.436"/>
	
		<rect x="4.721" y="694.273" transform="matrix(-0.809 0.5878 -0.5878 -0.809 473.7707 1249.2178)" fill="none" stroke="#FFFFFF" stroke-width="1.7161" stroke-miterlimit="10" width="58.436" height="14.609"/>
	
		<rect x="173.127" y="166.909" transform="matrix(-0.9135 -0.4067 0.4067 -0.9135 288.3073 409.7067)" fill="none" stroke="#FFFFFF" stroke-width="1.7161" stroke-miterlimit="10" width="29.139" height="14.609"/>
	
		<rect x="215.617" y="24.696" transform="matrix(-0.9135 -0.4067 0.4067 -0.9135 427.4561 154.8581)" fill="none" stroke="#FFFFFF" stroke-width="1.7161" stroke-miterlimit="10" width="29.139" height="14.609"/>
	
		<rect x="171.026" y="457.104" transform="matrix(-0.1737 -0.9848 0.9848 -0.1737 -239.5253 727.8339)" fill="none" stroke="#FFFFFF" stroke-width="1.7161" stroke-miterlimit="10" width="29.139" height="14.609"/>
	
		<rect x="-6.717" y="322.523" transform="matrix(0.9613 -0.2756 0.2756 0.9613 -90.6076 14.941)" fill="none" stroke="#FFFFFF" stroke-width="1.7161" stroke-miterlimit="10" width="29.138" height="14.609"/>
	
		<rect x="211.505" y="705.636" transform="matrix(0.1392 -0.9903 0.9903 0.1392 -511.9013 835.2636)" fill="none" stroke="#FFFFFF" stroke-width="1.7161" stroke-miterlimit="10" width="25.966" height="12.877"/>
	
		<rect x="1238.318" y="743.384" transform="matrix(-0.848 -0.5299 0.5299 -0.848 1963.9558 2062.8076)" fill="none" stroke="#FFFFFF" stroke-width="1.7161" stroke-miterlimit="10" width="78.826" height="12.877"/>
	
		<rect x="1143.624" y="534.489" transform="matrix(-0.7193 -0.6947 0.6947 -0.7193 1640.1416 1746.256)" fill="none" stroke="#FFFFFF" stroke-width="1.7161" stroke-miterlimit="10" width="58.436" height="14.609"/>
	
		<rect x="1249.242" y="296.769" transform="matrix(-0.4067 0.9135 -0.9135 -0.4067 2055.6301 -726.8011)" fill="none" stroke="#FFFFFF" stroke-width="1.7161" stroke-miterlimit="10" width="29.139" height="14.609"/>
	
		<rect x="1107.029" y="254.28" transform="matrix(-0.4067 0.9135 -0.9135 -0.4067 1816.7589 -656.6546)" fill="none" stroke="#FFFFFF" stroke-width="1.7161" stroke-miterlimit="10" width="29.139" height="14.609"/>
	
		<rect x="1265.009" y="53.14" transform="matrix(0.848 0.5299 -0.5299 0.848 229.7858 -682.192)" fill="none" stroke="#FFFFFF" stroke-width="1.7161" stroke-miterlimit="10" width="78.826" height="12.877"/>
</g>
<g id="Layer_2">
</g>
</svg>
