<?xml version="1.0" encoding="utf-8"?>
<!-- Generator: Adobe Illustrator 17.1.0, SVG Export Plug-In . SVG Version: 6.00 Build 0)  -->
<!DOCTYPE svg PUBLIC "-//W3C//DTD SVG 1.1//EN" "http://www.w3.org/Graphics/SVG/1.1/DTD/svg11.dtd">
<svg version="1.1" xmlns="http://www.w3.org/2000/svg" xmlns:xlink="http://www.w3.org/1999/xlink" x="0px" y="0px"
	 viewBox="0 0 1280 800" enable-background="new 0 0 1280 800" xml:space="preserve">
<g id="Layer_1">
	<rect x="-1393.16" y="-175" fill="#0046FE" width="8006" height="1150"/>
	<rect x="-0.16" fill="#0046FE" width="1280" height="800"/>
	
		<rect x="-61.841" y="743.384" transform="matrix(-0.848 -0.5299 0.5299 -0.848 -438.7982 1373.821)" fill="none" stroke="#FFFFFF" stroke-width="1.7161" stroke-miterlimit="10" width="78.826" height="12.877"/>
	
		<rect x="31.147" y="597.153" fill="none" stroke="#FFFFFF" stroke-width="1.7161" stroke-miterlimit="10" width="58.436" height="14.609"/>
	
		<rect x="140.492" y="683.752" fill="none" stroke="#FFFFFF" stroke-width="1.7161" stroke-miterlimit="10" width="14.609" height="29.139"/>
	<g>
		<defs>
			<rect id="SVGID_17_" x="172.994" y="44.59" width="938.156" height="732.039"/>
		</defs>
		<clipPath id="SVGID_2_">
			<use xlink:href="#SVGID_17_"  overflow="visible"/>
		</clipPath>
		
			<rect x="1029.987" y="82.789" transform="matrix(0.1736 0.9848 -0.9848 0.1736 976.1438 -983.131)" clip-path="url(#SVGID_2_)" fill="none" width="87.815" height="14.609"/>
	</g>
	
		<rect x="354.772" y="627.974" transform="matrix(-0.848 -0.5299 0.5299 -0.848 392.2815 1381.3123)" fill="none" stroke="#FFFFFF" stroke-width="1.7161" stroke-miterlimit="10" width="78.826" height="12.877"/>
	<g>
		<defs>
			<rect id="SVGID_19_" x="172.994" y="44.59" width="938.156" height="732.039"/>
		</defs>
		<clipPath id="SVGID_4_">
			<use xlink:href="#SVGID_19_"  overflow="visible"/>
		</clipPath>
		
			<rect x="172.974" y="679.087" transform="matrix(-0.8988 0.4384 -0.4384 -0.8988 703.792 1208.5703)" clip-path="url(#SVGID_4_)" fill="none" width="78.826" height="12.878"/>
	</g>
	
		<rect x="456.466" y="100.921" transform="matrix(-0.5299 0.848 -0.848 -0.5299 849.7044 -256.2748)" fill="none" stroke="#FFFFFF" stroke-width="1.7161" stroke-miterlimit="10" width="78.826" height="12.877"/>
	
		<rect x="746.411" y="670.693" transform="matrix(-0.7193 -0.6947 0.6947 -0.7193 862.584 1704.5063)" fill="none" stroke="#FFFFFF" stroke-width="1.7161" stroke-miterlimit="10" width="58.436" height="14.609"/>
	<g>
		<defs>
			<rect id="SVGID_21_" x="172.994" y="44.59" width="938.156" height="732.039"/>
		</defs>
		<clipPath id="SVGID_6_">
			<use xlink:href="#SVGID_21_"  overflow="visible"/>
		</clipPath>
		
			<rect x="855.961" y="748.804" transform="matrix(-0.8988 0.4384 -0.4384 -0.8988 2012.2272 1047.6638)" clip-path="url(#SVGID_6_)" fill="none" width="58.436" height="14.609"/>
	</g>
	
		<rect x="772.502" y="63.218" transform="matrix(-0.7193 -0.6947 0.6947 -0.7193 1329.4349 678.1796)" fill="none" stroke="#FFFFFF" stroke-width="1.7161" stroke-miterlimit="10" width="58.436" height="14.609"/>
	
		<rect x="555.51" y="737.573" transform="matrix(-0.2249 0.9744 -0.9744 -0.2249 1437.4839 344.5955)" fill="none" stroke="#FFFFFF" stroke-width="1.7161" stroke-miterlimit="10" width="52.36" height="12.877"/>
	
		<rect x="360.035" y="735.473" transform="matrix(0.5878 0.809 -0.809 0.5878 755.3298 3.1187)" fill="none" stroke="#FFFFFF" stroke-width="1.7161" stroke-miterlimit="10" width="29.138" height="14.608"/>
	
		<rect x="365.696" y="181.359" transform="matrix(-0.4067 0.9135 -0.9135 -0.4067 707.2846 -81.9909)" fill="none" stroke="#FFFFFF" stroke-width="1.7161" stroke-miterlimit="10" width="29.139" height="14.609"/>
	
		<rect x="223.483" y="138.87" transform="matrix(-0.4067 0.9135 -0.9135 -0.4067 468.413 -11.8446)" fill="none" stroke="#FFFFFF" stroke-width="1.7161" stroke-miterlimit="10" width="29.139" height="14.609"/>
	<g>
		<defs>
			<rect id="SVGID_23_" x="172.994" y="44.59" width="938.156" height="732.039"/>
		</defs>
		<clipPath id="SVGID_8_">
			<use xlink:href="#SVGID_23_"  overflow="visible"/>
		</clipPath>
		
			<rect x="1084.482" y="545.796" transform="matrix(-0.2756 -0.9613 0.9613 -0.2756 870.3115 1762.0302)" clip-path="url(#SVGID_8_)" fill="none" width="29.138" height="14.609"/>
	</g>
	
		<rect x="655.891" y="183.459" transform="matrix(-0.9848 0.1737 -0.1737 -0.9848 1363.8624 262.1962)" fill="none" stroke="#FFFFFF" stroke-width="1.7161" stroke-miterlimit="10" width="29.139" height="14.609"/>
	
		<rect x="909.431" y="597.795" transform="matrix(-0.6428 0.766 -0.766 -0.6428 1981.4706 286.2308)" fill="none" stroke="#FFFFFF" stroke-width="1.7161" stroke-miterlimit="10" width="29.138" height="14.609"/>
	
		<rect x="905.144" y="145.433" transform="matrix(-0.9903 -0.1392 0.1392 -0.9903 1806.1772 430.059)" fill="none" stroke="#FFFFFF" stroke-width="1.7161" stroke-miterlimit="10" width="25.966" height="12.877"/>
	
		<rect x="1121.863" y="462.87" transform="matrix(-0.2079 0.9781 -0.9781 -0.2079 1861.7754 -569.0146)" fill="none" stroke="#FFFFFF" stroke-width="1.7161" stroke-miterlimit="10" width="78.826" height="12.878"/>
	
		<rect x="1088.997" y="211.594" transform="matrix(0.766 0.6428 -0.6428 0.766 404.1482 -674.3195)" fill="none" stroke="#FFFFFF" stroke-width="1.7161" stroke-miterlimit="10" width="78.826" height="12.877"/>
	
		<rect x="973.581" y="513.136" transform="matrix(0.848 0.5299 -0.5299 0.848 429.2659 -457.8589)" fill="none" stroke="#FFFFFF" stroke-width="1.7161" stroke-miterlimit="10" width="78.826" height="12.877"/>
	
		<rect x="1241.275" y="589.718" fill="none" stroke="#FFFFFF" stroke-width="1.7161" stroke-miterlimit="10" width="14.609" height="58.436"/>
	
		<rect x="1218.837" y="100.52" transform="matrix(0.809 -0.5878 0.5878 0.809 174.9778 754.1777)" fill="none" stroke="#FFFFFF" stroke-width="1.7161" stroke-miterlimit="10" width="58.436" height="14.609"/>
	
		<rect x="1079.728" y="627.884" transform="matrix(0.9135 0.4067 -0.4067 0.9135 352.9568 -390.1727)" fill="none" stroke="#FFFFFF" stroke-width="1.7161" stroke-miterlimit="10" width="29.139" height="14.609"/>
	
		<rect x="1037.238" y="770.097" transform="matrix(0.9135 0.4067 -0.4067 0.9135 407.1266 -360.5963)" fill="none" stroke="#FFFFFF" stroke-width="1.7161" stroke-miterlimit="10" width="29.139" height="14.609"/>
	
		<rect x="1081.828" y="337.689" transform="matrix(0.1737 0.9848 -0.9848 0.1737 1245.7473 -794.6574)" fill="none" stroke="#FFFFFF" stroke-width="1.7161" stroke-miterlimit="10" width="29.139" height="14.609"/>
	
		<rect x="1259.572" y="472.27" transform="matrix(-0.9613 0.2756 -0.2756 -0.9613 2631.113 589.3736)" fill="none" stroke="#FFFFFF" stroke-width="1.7161" stroke-miterlimit="10" width="29.138" height="14.609"/>
	
		<rect x="1044.522" y="90.888" transform="matrix(-0.1392 0.9903 -0.9903 -0.1392 1301.0797 -936.3375)" fill="none" stroke="#FFFFFF" stroke-width="1.7161" stroke-miterlimit="10" width="25.966" height="12.877"/>
	
		<rect x="-35.151" y="53.14" transform="matrix(0.848 0.5299 -0.5299 0.848 32.2198 6.7946)" fill="none" stroke="#FFFFFF" stroke-width="1.7161" stroke-miterlimit="10" width="78.826" height="12.877"/>
	
		<rect x="106.026" y="111.08" fill="none" stroke="#FFFFFF" stroke-width="1.7161" stroke-miterlimit="10" width="58.436" height="14.609"/>
	
		<rect x="79.934" y="260.303" transform="matrix(0.7193 0.6947 -0.6947 0.7193 216.5329 -0.7156)" fill="none" stroke="#FFFFFF" stroke-width="1.7161" stroke-miterlimit="10" width="58.436" height="14.609"/>
	
		<rect x="248.635" y="670.694" transform="matrix(-0.5878 -0.809 0.809 -0.5878 -130.5949 1289.4561)" fill="none" stroke="#FFFFFF" stroke-width="1.7161" stroke-miterlimit="10" width="29.138" height="14.608"/>
	
		<rect x="3.613" y="498.024" transform="matrix(0.4067 -0.9135 0.9135 0.4067 -450.8538 316.4052)" fill="none" stroke="#FFFFFF" stroke-width="1.7161" stroke-miterlimit="10" width="29.139" height="14.609"/>
	
		<rect x="145.826" y="540.513" transform="matrix(0.4067 -0.9135 0.9135 0.4067 -405.3001 471.5308)" fill="none" stroke="#FFFFFF" stroke-width="1.7161" stroke-miterlimit="10" width="29.139" height="14.609"/>
	
		<rect x="1261.987" y="188.326" transform="matrix(0.6428 -0.766 0.766 0.6428 306.1359 1047.7756)" fill="none" stroke="#FFFFFF" stroke-width="1.7161" stroke-miterlimit="10" width="29.138" height="14.609"/>
</g>
<g id="Layer_2">
</g>
</svg>
