<?xml version="1.0" encoding="utf-8"?>
<!-- Generator: Adobe Illustrator 17.1.0, SVG Export Plug-In . SVG Version: 6.00 Build 0)  -->
<!DOCTYPE svg PUBLIC "-//W3C//DTD SVG 1.1//EN" "http://www.w3.org/Graphics/SVG/1.1/DTD/svg11.dtd">
<svg version="1.1" xmlns="http://www.w3.org/2000/svg" xmlns:xlink="http://www.w3.org/1999/xlink" x="0px" y="0px"
	 viewBox="0 0 1280 800" enable-background="new 0 0 1280 800" xml:space="preserve">
<g id="Layer_1">
	<rect x="0.68" fill="#0046FE" width="1280" height="800"/>
	
		<rect x="1033.016" y="538.648" transform="matrix(0.9781 0.2079 -0.2079 0.9781 136.7672 -211.0616)" fill="none" stroke="#FFFFFF" stroke-width="1.7161" stroke-miterlimit="10" width="78.826" height="12.878"/>
	
		<rect x="781.741" y="571.515" transform="matrix(0.6428 -0.766 0.766 0.6428 -149.4128 835.4905)" fill="none" stroke="#FFFFFF" stroke-width="1.7161" stroke-miterlimit="10" width="78.826" height="12.877"/>
	
		<rect x="1184.976" y="159.878" transform="matrix(0.848 0.5299 -0.5299 0.848 274.1877 -623.5611)" fill="none" stroke="#FFFFFF" stroke-width="1.7161" stroke-miterlimit="10" width="78.826" height="12.877"/>
	
		<rect x="1083.282" y="686.931" transform="matrix(0.5299 -0.848 0.848 0.5299 -60.2578 1278.0311)" fill="none" stroke="#FFFFFF" stroke-width="1.7161" stroke-miterlimit="10" width="78.826" height="12.877"/>
	
		<rect x="1192.839" y="450.48" fill="none" stroke="#FFFFFF" stroke-width="1.7161" stroke-miterlimit="10" width="58.436" height="14.609"/>
	
		<rect x="1070.655" y="213.083" transform="matrix(0.7071 -0.7071 0.7071 0.7071 166.2984 842.2649)" fill="none" stroke="#FFFFFF" stroke-width="1.7161" stroke-miterlimit="10" width="58.436" height="14.61"/>
	
		<rect x="813.728" y="115.427" transform="matrix(0.7193 0.6947 -0.6947 0.7193 321.844 -551.1178)" fill="none" stroke="#FFFFFF" stroke-width="1.7161" stroke-miterlimit="10" width="58.436" height="14.609"/>
	
		<rect x="949.994" y="159.878" transform="matrix(0.9848 -0.1736 0.1736 0.9848 -14.0504 172.0363)" fill="none" stroke="#FFFFFF" stroke-width="1.7161" stroke-miterlimit="10" width="52.36" height="12.878"/>
	
		<rect x="1010.705" y="50.279" transform="matrix(0.2249 -0.9744 0.9744 0.2249 748.3741 1054.2693)" fill="none" stroke="#FFFFFF" stroke-width="1.7161" stroke-miterlimit="10" width="52.36" height="12.877"/>
	
		<rect x="1187.174" y="316.478" fill="none" stroke="#FFFFFF" stroke-width="1.7161" stroke-miterlimit="10" width="14.609" height="29.139"/>
	
		<rect x="1229.401" y="50.649" transform="matrix(-0.5878 -0.809 0.809 -0.5878 1928.2822 1098.4039)" fill="none" stroke="#FFFFFF" stroke-width="1.7161" stroke-miterlimit="10" width="29.138" height="14.608"/>
	
		<rect x="1223.74" y="604.762" transform="matrix(0.4067 -0.9135 0.9135 0.4067 175.4972 1494.3733)" fill="none" stroke="#FFFFFF" stroke-width="1.7161" stroke-miterlimit="10" width="29.139" height="14.609"/>
	
		<rect x="933.545" y="602.662" transform="matrix(0.9848 -0.1737 0.1737 0.9848 -91.5212 173.9187)" fill="none" stroke="#FFFFFF" stroke-width="1.7161" stroke-miterlimit="10" width="29.139" height="14.609"/>
	
		<rect x="1068.126" y="424.918" transform="matrix(0.2756 0.9613 -0.9613 0.2756 1199.7465 -727.6669)" fill="none" stroke="#FFFFFF" stroke-width="1.7161" stroke-miterlimit="10" width="29.138" height="14.609"/>
	
		<rect x="46.552" y="228.543" fill="none" stroke="#FFFFFF" stroke-width="1.7161" stroke-miterlimit="10" width="14.609" height="87.815"/>
	
		<rect x="314.838" y="538.648" transform="matrix(0.9781 0.2079 -0.2079 0.9781 121.0729 -61.7421)" fill="none" stroke="#FFFFFF" stroke-width="1.7161" stroke-miterlimit="10" width="78.826" height="12.878"/>
	
		<rect x="63.562" y="571.515" transform="matrix(0.6428 -0.766 0.766 0.6428 -405.9539 285.3349)" fill="none" stroke="#FFFFFF" stroke-width="1.7161" stroke-miterlimit="10" width="78.826" height="12.877"/>
	
		<rect x="466.798" y="159.878" transform="matrix(0.848 0.5299 -0.5299 0.848 165.0568 -242.9807)" fill="none" stroke="#FFFFFF" stroke-width="1.7161" stroke-miterlimit="10" width="78.826" height="12.877"/>
	
		<rect x="365.104" y="686.931" transform="matrix(0.5299 -0.848 0.848 0.5299 -397.8553 668.9839)" fill="none" stroke="#FFFFFF" stroke-width="1.7161" stroke-miterlimit="10" width="78.826" height="12.877"/>
	
		<rect x="352.477" y="213.083" transform="matrix(0.7071 -0.7071 0.7071 0.7071 -44.0441 334.4433)" fill="none" stroke="#FFFFFF" stroke-width="1.7161" stroke-miterlimit="10" width="58.436" height="14.61"/>
	
		<rect x="95.549" y="115.427" transform="matrix(0.7193 0.6947 -0.6947 0.7193 120.2757 -52.2247)" fill="none" stroke="#FFFFFF" stroke-width="1.7161" stroke-miterlimit="10" width="58.436" height="14.609"/>
	
		<rect x="231.816" y="159.878" transform="matrix(0.9848 -0.1736 0.1736 0.9848 -24.961 47.3268)" fill="none" stroke="#FFFFFF" stroke-width="1.7161" stroke-miterlimit="10" width="52.36" height="12.878"/>
	
		<rect x="292.526" y="50.279" transform="matrix(0.2249 -0.9744 0.9744 0.2249 191.7493 354.4974)" fill="none" stroke="#FFFFFF" stroke-width="1.7161" stroke-miterlimit="10" width="52.36" height="12.877"/>
	
		<rect x="511.223" y="50.649" transform="matrix(-0.5878 -0.809 0.809 -0.5878 787.9637 517.3892)" fill="none" stroke="#FFFFFF" stroke-width="1.7161" stroke-miterlimit="10" width="29.138" height="14.608"/>
	
		<rect x="100.682" y="388.488" transform="matrix(0.2756 0.9613 -0.9613 0.2756 463.9445 175.9117)" fill="none" stroke="#FFFFFF" stroke-width="1.7161" stroke-miterlimit="10" width="29.138" height="14.609"/>
	
		<rect x="215.366" y="602.662" transform="matrix(0.9848 -0.1737 0.1737 0.9848 -102.4336 49.199)" fill="none" stroke="#FFFFFF" stroke-width="1.7161" stroke-miterlimit="10" width="29.139" height="14.609"/>
</g>
<g id="Layer_2">
</g>
</svg>
