<?xml version="1.0" encoding="utf-8"?>
<!-- Generator: Adobe Illustrator 17.1.0, SVG Export Plug-In . SVG Version: 6.00 Build 0)  -->
<!DOCTYPE svg PUBLIC "-//W3C//DTD SVG 1.1//EN" "http://www.w3.org/Graphics/SVG/1.1/DTD/svg11.dtd">
<svg version="1.1" xmlns="http://www.w3.org/2000/svg" xmlns:xlink="http://www.w3.org/1999/xlink" x="0px" y="0px"
	 viewBox="0 0 1280 800" enable-background="new 0 0 1280 800" xml:space="preserve">
<g id="Layer_1">
	<rect x="-3993.48" y="-175" fill="#0046FE" width="8006" height="1150"/>
	<rect x="-0.48" fill="#0046FE" width="1280" height="800"/>
	
		<rect x="-0.099" y="367.041" transform="matrix(0.7193 0.6947 -0.6947 0.7193 268.2178 84.8383)" fill="none" stroke="#FFFFFF" stroke-width="1.7161" stroke-miterlimit="10" width="58.436" height="14.609"/>
	
		<rect x="65.793" y="647.252" transform="matrix(0.4067 -0.9135 0.9135 0.4067 -550.2916 461.7414)" fill="none" stroke="#FFFFFF" stroke-width="1.7161" stroke-miterlimit="10" width="29.139" height="14.609"/>
	
		<rect x="103.347" y="490.341" transform="matrix(-0.6428 0.766 -0.766 -0.6428 574.9282 727.1991)" fill="none" stroke="#FFFFFF" stroke-width="1.7161" stroke-miterlimit="10" width="29.138" height="14.609"/>
	
		<rect x="99.06" y="37.978" transform="matrix(-0.9903 -0.1392 0.1392 -0.9903 216.8128 103.9972)" fill="none" stroke="#FFFFFF" stroke-width="1.7161" stroke-miterlimit="10" width="25.966" height="12.877"/>
	
		<rect x="583.923" y="54.155" fill="none" stroke="#FFFFFF" stroke-width="1.7161" stroke-miterlimit="10" width="87.815" height="14.609"/>
	
		<rect x="282.913" y="104.14" transform="matrix(0.766 0.6428 -0.6428 0.766 146.4889 -181.3172)" fill="none" stroke="#FFFFFF" stroke-width="1.7161" stroke-miterlimit="10" width="78.826" height="12.877"/>
	
		<rect x="167.497" y="405.681" transform="matrix(0.848 0.5299 -0.5299 0.848 249.8341 -47.0229)" fill="none" stroke="#FFFFFF" stroke-width="1.7161" stroke-miterlimit="10" width="78.826" height="12.877"/>
	
		<rect x="748.33" y="125.066" transform="matrix(-0.6947 0.7193 -0.7193 -0.6947 1412.9014 -334.9927)" fill="none" stroke="#FFFFFF" stroke-width="1.7161" stroke-miterlimit="10" width="58.436" height="14.609"/>
	
		<rect x="496.716" y="611.399" transform="matrix(-0.6947 0.7193 -0.7193 -0.6947 1336.3364 670.1733)" fill="none" stroke="#FFFFFF" stroke-width="1.7161" stroke-miterlimit="10" width="58.436" height="14.609"/>
	
		<rect x="412.753" y="-6.935" transform="matrix(0.809 -0.5878 0.5878 0.809 84.1908 259.8537)" fill="none" stroke="#FFFFFF" stroke-width="1.7161" stroke-miterlimit="10" width="58.436" height="14.609"/>
	
		<rect x="273.645" y="520.43" transform="matrix(0.9135 0.4067 -0.4067 0.9135 239.5636 -71.6019)" fill="none" stroke="#FFFFFF" stroke-width="1.7161" stroke-miterlimit="10" width="29.139" height="14.609"/>
	
		<rect x="231.155" y="662.643" transform="matrix(0.9135 0.4067 -0.4067 0.9135 293.733 -42.0252)" fill="none" stroke="#FFFFFF" stroke-width="1.7161" stroke-miterlimit="10" width="29.139" height="14.609"/>
	
		<rect x="489.919" y="115.55" transform="matrix(-0.9613 0.2756 -0.2756 -0.9613 1023.2959 101.8956)" fill="none" stroke="#FFFFFF" stroke-width="1.7161" stroke-miterlimit="10" width="29.138" height="14.609"/>
	
		<rect x="155.505" y="195.685" transform="matrix(0.1737 0.9848 -0.9848 0.1737 340.4437 0.2482)" fill="none" stroke="#FFFFFF" stroke-width="1.7161" stroke-miterlimit="10" width="29.139" height="14.609"/>
	
		<rect x="690.081" y="-23.305" transform="matrix(0.766 0.6428 -0.6428 0.766 154.5742 -456.6865)" fill="none" stroke="#FFFFFF" stroke-width="1.7161" stroke-miterlimit="10" width="29.138" height="14.609"/>
	
		<rect x="238.439" y="-16.566" transform="matrix(-0.1392 0.9903 -0.9903 -0.1392 276.3885 -260.5115)" fill="none" stroke="#FFFFFF" stroke-width="1.7161" stroke-miterlimit="10" width="25.966" height="12.877"/>
	
		<rect x="861.831" y="669.876" transform="matrix(-0.6428 0.766 -0.766 -0.6428 1958.4908 441.1089)" fill="none" stroke="#FFFFFF" stroke-width="1.7161" stroke-miterlimit="10" width="29.138" height="14.609"/>
	
		<rect x="1074.264" y="534.951" transform="matrix(-0.2079 0.9781 -0.9781 -0.2079 1874.7849 -435.3871)" fill="none" stroke="#FFFFFF" stroke-width="1.7161" stroke-miterlimit="10" width="78.826" height="12.878"/>
	
		<rect x="1041.397" y="283.675" transform="matrix(0.766 0.6428 -0.6428 0.766 439.3448 -626.8588)" fill="none" stroke="#FFFFFF" stroke-width="1.7161" stroke-miterlimit="10" width="78.826" height="12.877"/>
	
		<rect x="925.981" y="585.217" transform="matrix(0.848 0.5299 -0.5299 0.848 460.2305 -421.6813)" fill="none" stroke="#FFFFFF" stroke-width="1.7161" stroke-miterlimit="10" width="78.826" height="12.877"/>
	
		<rect x="1193.675" y="661.799" fill="none" stroke="#FFFFFF" stroke-width="1.7161" stroke-miterlimit="10" width="14.609" height="58.436"/>
	
		<rect x="1171.237" y="172.601" transform="matrix(0.809 -0.5878 0.5878 0.809 123.519 739.9653)" fill="none" stroke="#FFFFFF" stroke-width="1.7161" stroke-miterlimit="10" width="58.436" height="14.609"/>
	
		<rect x="1032.128" y="699.966" transform="matrix(0.9135 0.4067 -0.4067 0.9135 378.1595 -364.5806)" fill="none" stroke="#FFFFFF" stroke-width="1.7161" stroke-miterlimit="10" width="29.139" height="14.609"/>
	
		<rect x="452.395" y="730.853" transform="matrix(0.4067 -0.9135 0.9135 0.4067 -397.3073 864.518)" fill="none" stroke="#FFFFFF" stroke-width="1.7161" stroke-miterlimit="10" width="29.139" height="14.609"/>
	
		<rect x="617.756" y="746.244" transform="matrix(0.9135 0.4067 -0.4067 0.9135 361.1593 -192.0413)" fill="none" stroke="#FFFFFF" stroke-width="1.7161" stroke-miterlimit="10" width="29.139" height="14.609"/>
	
		<rect x="1248.402" y="295.086" transform="matrix(-0.9613 0.2756 -0.2756 -0.9613 2560.3682 244.948)" fill="none" stroke="#FFFFFF" stroke-width="1.7161" stroke-miterlimit="10" width="29.138" height="14.609"/>
	
		<rect x="1034.228" y="409.77" transform="matrix(0.1737 0.9848 -0.9848 0.1737 1277.3995 -688.2171)" fill="none" stroke="#FFFFFF" stroke-width="1.7161" stroke-miterlimit="10" width="29.139" height="14.609"/>
	
		<rect x="1211.972" y="544.351" transform="matrix(-0.9613 0.2756 -0.2756 -0.9613 2557.625 743.864)" fill="none" stroke="#FFFFFF" stroke-width="1.7161" stroke-miterlimit="10" width="29.138" height="14.609"/>
	
		<rect x="996.923" y="162.969" transform="matrix(-0.1392 0.9903 -0.9903 -0.1392 1318.234 -807.0868)" fill="none" stroke="#FFFFFF" stroke-width="1.7161" stroke-miterlimit="10" width="25.966" height="12.877"/>
	
		<rect x="906.621" y="34.693" transform="matrix(0.4067 -0.9135 0.9135 0.4067 508.145 866.4661)" fill="none" stroke="#FFFFFF" stroke-width="1.7161" stroke-miterlimit="10" width="29.139" height="14.609"/>
	
		<rect x="1071.982" y="50.084" transform="matrix(0.9135 0.4067 -0.4067 0.9135 117.2772 -436.975)" fill="none" stroke="#FFFFFF" stroke-width="1.7161" stroke-miterlimit="10" width="29.139" height="14.609"/>
</g>
<g id="Layer_2">
</g>
</svg>
