<?xml version="1.0" encoding="utf-8"?>
<!-- Generator: Adobe Illustrator 17.1.0, SVG Export Plug-In . SVG Version: 6.00 Build 0)  -->
<!DOCTYPE svg PUBLIC "-//W3C//DTD SVG 1.1//EN" "http://www.w3.org/Graphics/SVG/1.1/DTD/svg11.dtd">
<svg version="1.1" xmlns="http://www.w3.org/2000/svg" xmlns:xlink="http://www.w3.org/1999/xlink" x="0px" y="0px"
	 viewBox="0 0 1280 800" enable-background="new 0 0 1280 800" xml:space="preserve">
<g id="Layer_1">
	<rect x="0.36" fill="#0046FE" width="1280" height="800"/>
	
		<rect x="583.295" y="-2.954" transform="matrix(0.0174 0.9998 -0.9998 0.0174 606.178 -608.1453)" fill="none" stroke="#FFFFFF" stroke-width="1.7161" stroke-miterlimit="10" width="58.436" height="14.609"/>
	
		<rect x="1128.206" y="60.933" transform="matrix(0.848 -0.5299 0.5299 0.848 139.7106 621.9706)" fill="none" stroke="#FFFFFF" stroke-width="1.7161" stroke-miterlimit="10" width="52.36" height="12.877"/>
	
		<rect x="775.781" y="4.837" transform="matrix(0.8192 0.5736 -0.5736 0.8192 149.8914 -451.122)" fill="none" stroke="#FFFFFF" stroke-width="1.7161" stroke-miterlimit="10" width="29.139" height="14.609"/>
	
		<rect x="428.873" y="701.234" transform="matrix(0.5446 0.8387 -0.8387 0.5446 806.7458 -70.4899)" fill="none" stroke="#FFFFFF" stroke-width="1.7161" stroke-miterlimit="10" width="78.826" height="12.878"/>
	
		<rect x="356.46" y="46.267" transform="matrix(-0.0872 -0.9962 0.9962 -0.0872 377.8693 451.6656)" fill="none" stroke="#FFFFFF" stroke-width="1.7161" stroke-miterlimit="10" width="78.826" height="12.877"/>
	
		<rect x="628.516" y="722.525" transform="matrix(0.7071 -0.7071 0.7071 0.7071 -345.3353 669.7731)" fill="none" stroke="#FFFFFF" stroke-width="1.7161" stroke-miterlimit="10" width="14.609" height="58.436"/>
	
		<rect x="204.124" y="38.729" transform="matrix(-0.9877 -0.1564 0.1564 -0.9877 456.6096 128.0027)" fill="none" stroke="#FFFFFF" stroke-width="1.7161" stroke-miterlimit="10" width="58.436" height="14.609"/>
	
		<rect x="597.944" y="141.27" transform="matrix(0.5736 -0.8192 0.8192 0.5736 139.4904 565.1035)" fill="none" stroke="#FFFFFF" stroke-width="1.7161" stroke-miterlimit="10" width="29.139" height="14.609"/>
	
		<rect x="547.854" y="620.749" transform="matrix(-0.4848 0.8746 -0.8746 -0.4848 1384.3994 440.6359)" fill="none" stroke="#FFFFFF" stroke-width="1.7161" stroke-miterlimit="10" width="29.138" height="14.609"/>
	
		<rect x="347.675" y="181.756" transform="matrix(0.7986 -0.6018 0.6018 0.7986 -40.6357 254.9383)" fill="none" stroke="#FFFFFF" stroke-width="1.7161" stroke-miterlimit="10" width="25.966" height="12.877"/>
	
		<rect x="42.247" y="233.691" fill="none" stroke="#FFFFFF" stroke-width="1.7161" stroke-miterlimit="10" width="87.815" height="14.609"/>
	
		<rect x="152.874" y="686.911" transform="matrix(-0.5299 0.848 -0.848 -0.5299 882.1765 897.7043)" fill="none" stroke="#FFFFFF" stroke-width="1.7161" stroke-miterlimit="10" width="78.826" height="12.877"/>
	
		<rect x="108.997" y="561.528" transform="matrix(0.7071 0.7071 -0.7071 0.7071 442.7152 68.8786)" fill="none" stroke="#FFFFFF" stroke-width="1.7161" stroke-miterlimit="10" width="58.436" height="14.61"/>
	
		<rect x="206.654" y="304.602" transform="matrix(-0.6947 0.7193 -0.7193 -0.6947 624.0881 358.9059)" fill="none" stroke="#FFFFFF" stroke-width="1.7161" stroke-miterlimit="10" width="58.436" height="14.609"/>
	
		<rect x="166.107" y="438.695" transform="matrix(0.1736 0.9848 -0.9848 0.1736 597.2684 178.4724)" fill="none" stroke="#FFFFFF" stroke-width="1.7161" stroke-miterlimit="10" width="52.36" height="12.878"/>
	
		<rect x="12.988" y="656.135" fill="none" stroke="#FFFFFF" stroke-width="1.7161" stroke-miterlimit="10" width="29.139" height="14.609"/>
	
		<rect x="286.082" y="705.626" transform="matrix(0.809 -0.5878 0.5878 0.809 -361.6346 312.882)" fill="none" stroke="#FFFFFF" stroke-width="1.7161" stroke-miterlimit="10" width="29.138" height="14.608"/>
	
		<rect x="148.405" y="156.23" transform="matrix(0.766 0.6428 -0.6428 0.766 143.2482 -66.4977)" fill="none" stroke="#FFFFFF" stroke-width="1.7161" stroke-miterlimit="10" width="29.138" height="14.609"/>
	
		<rect x="1222.439" y="106.528" transform="matrix(-0.0872 -0.9962 0.9962 -0.0872 1231.4144 1356.0544)" fill="none" stroke="#FFFFFF" stroke-width="1.7161" stroke-miterlimit="10" width="29.138" height="14.609"/>
	
		<rect x="1090.967" y="755.521" transform="matrix(-0.7071 0.7071 -0.7071 -0.7071 2476.7507 499.748)" fill="none" stroke="#FFFFFF" stroke-width="1.7161" stroke-miterlimit="10" width="87.815" height="14.609"/>
	
		<rect x="1075.834" y="351.192" transform="matrix(-0.5446 -0.8387 0.8387 -0.5446 1422.7158 1487.7367)" fill="none" stroke="#FFFFFF" stroke-width="1.7161" stroke-miterlimit="10" width="78.826" height="12.878"/>
	
		<rect x="1276.753" y="505.632" transform="matrix(-0.9962 0.0872 -0.0872 -0.9962 2671.9521 907.4827)" fill="none" stroke="#FFFFFF" stroke-width="1.7161" stroke-miterlimit="10" width="78.826" height="12.877"/>
	
		<rect x="790.491" y="127.907" transform="matrix(-0.2249 -0.9744 0.9744 -0.2249 885.6841 973.2009)" fill="none" stroke="#FFFFFF" stroke-width="1.7161" stroke-miterlimit="10" width="78.826" height="12.877"/>
	
		<rect x="1145.142" y="210.798" transform="matrix(-0.9744 0.2249 -0.2249 -0.9744 2387.6174 162.4467)" fill="none" stroke="#FFFFFF" stroke-width="1.7161" stroke-miterlimit="10" width="78.826" height="12.877"/>
	
		<rect x="976.967" y="176.852" fill="none" stroke="#FFFFFF" stroke-width="1.7161" stroke-miterlimit="10" width="58.436" height="14.61"/>
	
		<rect x="949.648" y="811.246" transform="matrix(-0.0174 -0.9998 0.9998 -0.0174 177.5147 1811.5466)" fill="none" stroke="#FFFFFF" stroke-width="1.7161" stroke-miterlimit="10" width="58.436" height="14.609"/>
	
		<rect x="37.384" y="-1.16" transform="matrix(-0.6947 0.7193 -0.7193 -0.6947 117.2888 -37.4953)" fill="none" stroke="#FFFFFF" stroke-width="1.7161" stroke-miterlimit="10" width="58.436" height="14.609"/>
	
		<rect x="889.299" y="687.086" transform="matrix(-0.8192 -0.5736 0.5736 -0.8192 1267.6038 1786.7255)" fill="none" stroke="#FFFFFF" stroke-width="1.7161" stroke-miterlimit="10" width="52.36" height="12.878"/>
	
		<rect x="768.871" y="721.656" transform="matrix(-0.848 0.5299 -0.5299 -0.848 1855.125 924.2386)" fill="none" stroke="#FFFFFF" stroke-width="1.7161" stroke-miterlimit="10" width="52.36" height="12.877"/>
	
		<rect x="952.966" y="31.709" transform="matrix(-0.7071 0.7071 -0.7071 -0.7071 1679.2738 -617.5504)" fill="none" stroke="#FFFFFF" stroke-width="1.7161" stroke-miterlimit="10" width="29.139" height="14.609"/>
	
		<rect x="724.864" y="189.821" transform="matrix(-0.1564 0.9877 -0.9877 -0.1564 1049.7974 -502.3707)" fill="none" stroke="#FFFFFF" stroke-width="1.7161" stroke-miterlimit="10" width="29.138" height="14.608"/>
	
		<rect x="1164.108" y="624.893" transform="matrix(0.4848 -0.8746 0.8746 0.4848 54.3086 1356.5928)" fill="none" stroke="#FFFFFF" stroke-width="1.7161" stroke-miterlimit="10" width="29.138" height="14.609"/>
	
		<rect x="1234.458" y="392.355" transform="matrix(-0.8192 -0.5736 0.5736 -0.8192 2042.9484 1443.4435)" fill="none" stroke="#FFFFFF" stroke-width="1.7161" stroke-miterlimit="10" width="29.139" height="14.609"/>
	
		<rect x="1013.611" y="422.876" transform="matrix(0.4848 -0.8746 0.8746 0.4848 153.4623 1120.8885)" fill="none" stroke="#FFFFFF" stroke-width="1.7161" stroke-miterlimit="10" width="29.138" height="14.609"/>
</g>
<g id="Layer_2">
</g>
</svg>
