<?xml version="1.0" encoding="utf-8"?>
<!-- Generator: Adobe Illustrator 17.1.0, SVG Export Plug-In . SVG Version: 6.00 Build 0)  -->
<!DOCTYPE svg PUBLIC "-//W3C//DTD SVG 1.1//EN" "http://www.w3.org/Graphics/SVG/1.1/DTD/svg11.dtd">
<svg version="1.1" xmlns="http://www.w3.org/2000/svg" xmlns:xlink="http://www.w3.org/1999/xlink" x="0px" y="0px"
	 viewBox="0 0 1280 800" enable-background="new 0 0 1280 800" xml:space="preserve">
<g id="Layer_1">
	<rect x="0.2" fill="#0046FE" width="1280" height="800"/>
	
		<rect x="1180.548" y="-0.67" transform="matrix(-0.0872 -0.9962 0.9962 -0.0872 1292.6631 1197.7832)" fill="none" stroke="#FFFFFF" stroke-width="1.7161" stroke-miterlimit="10" width="29.138" height="14.609"/>
	
		<rect x="1153.251" y="123.6" transform="matrix(-0.9744 0.2249 -0.2249 -0.9744 2384.0142 -11.5383)" fill="none" stroke="#FFFFFF" stroke-width="1.7161" stroke-miterlimit="10" width="78.826" height="12.877"/>
	
		<rect x="1038.853" y="98.473" transform="matrix(-0.9336 0.3584 -0.3584 -0.9336 2074.7834 -172.9883)" fill="none" stroke="#FFFFFF" stroke-width="1.7161" stroke-miterlimit="10" width="29.139" height="14.609"/>
	
		<rect x="198.498" y="403.722" transform="matrix(0.7986 -0.6018 0.6018 0.7986 -204.2524 209.857)" fill="none" stroke="#FFFFFF" stroke-width="1.7161" stroke-miterlimit="10" width="25.966" height="12.877"/>
	
		<rect x="-23.407" y="505.632" transform="matrix(-0.9962 0.0872 -0.0872 -0.9962 76.5794 1020.7968)" fill="none" stroke="#FFFFFF" stroke-width="1.7161" stroke-miterlimit="10" width="78.826" height="12.877"/>
	
		<rect x="-19.885" y="667.296" transform="matrix(-0.1564 0.9877 -0.9877 -0.1564 677.088 770.916)" fill="none" stroke="#FFFFFF" stroke-width="1.7161" stroke-miterlimit="10" width="58.436" height="14.609"/>
	
		<rect x="1221.063" y="418.469" transform="matrix(-0.7193 -0.6947 0.6947 -0.7193 1853.8802 1600.5739)" fill="none" stroke="#FFFFFF" stroke-width="1.7161" stroke-miterlimit="10" width="58.436" height="14.609"/>
	
		<rect x="1146.915" y="295.17" transform="matrix(0.6428 -0.766 0.766 0.6428 183.1837 997.7913)" fill="none" stroke="#FFFFFF" stroke-width="1.7161" stroke-miterlimit="10" width="29.138" height="14.609"/>
	
		<rect x="1154.374" y="749.264" transform="matrix(0.9903 0.1392 -0.1392 0.9903 116.5501 -155.1286)" fill="none" stroke="#FFFFFF" stroke-width="1.7161" stroke-miterlimit="10" width="25.966" height="12.877"/>
	
		<rect x="607.663" y="731.356" fill="none" stroke="#FFFFFF" stroke-width="1.7161" stroke-miterlimit="10" width="87.815" height="14.609"/>
	
		<rect x="917.661" y="683.103" transform="matrix(-0.766 -0.6428 0.6428 -0.766 1247.0032 1832.9574)" fill="none" stroke="#FFFFFF" stroke-width="1.7161" stroke-miterlimit="10" width="78.826" height="12.877"/>
	
		<rect x="1033.077" y="381.561" transform="matrix(-0.848 -0.5299 0.5299 -0.848 1776.397 1285.381)" fill="none" stroke="#FFFFFF" stroke-width="1.7161" stroke-miterlimit="10" width="78.826" height="12.877"/>
	
		<rect x="472.634" y="660.445" transform="matrix(0.6947 -0.7193 0.7193 0.6947 -327.1017 564.8867)" fill="none" stroke="#FFFFFF" stroke-width="1.7161" stroke-miterlimit="10" width="58.436" height="14.609"/>
	
		<rect x="724.248" y="174.112" transform="matrix(0.6947 -0.7193 0.7193 0.6947 99.5609 597.3865)" fill="none" stroke="#FFFFFF" stroke-width="1.7161" stroke-miterlimit="10" width="58.436" height="14.609"/>
	
		<rect x="808.21" y="792.446" transform="matrix(-0.809 0.5878 -0.5878 -0.809 1985.0034 954.5375)" fill="none" stroke="#FFFFFF" stroke-width="1.7161" stroke-miterlimit="10" width="58.436" height="14.609"/>
	
		<rect x="976.617" y="265.082" transform="matrix(-0.9135 -0.4067 0.4067 -0.9135 1785.8928 924.371)" fill="none" stroke="#FFFFFF" stroke-width="1.7161" stroke-miterlimit="10" width="29.139" height="14.609"/>
	
		<rect x="760.343" y="669.962" transform="matrix(0.9613 -0.2756 0.2756 0.9613 -156.6595 239.8277)" fill="none" stroke="#FFFFFF" stroke-width="1.7161" stroke-miterlimit="10" width="29.138" height="14.609"/>
	
		<rect x="1094.757" y="589.826" transform="matrix(-0.1737 -0.9848 0.9848 -0.1737 713.9149 1793.2997)" fill="none" stroke="#FFFFFF" stroke-width="1.7161" stroke-miterlimit="10" width="29.139" height="14.609"/>
	
		<rect x="560.181" y="808.816" transform="matrix(-0.766 -0.6428 0.6428 -0.766 490.4362 1810.7469)" fill="none" stroke="#FFFFFF" stroke-width="1.7161" stroke-miterlimit="10" width="29.138" height="14.609"/>
	
		<rect x="1014.995" y="803.809" transform="matrix(0.1392 -0.9903 0.9903 0.1392 82.5331 1715.4406)" fill="none" stroke="#FFFFFF" stroke-width="1.7161" stroke-miterlimit="10" width="25.966" height="12.877"/>
	
		<rect x="388.431" y="115.635" transform="matrix(0.6428 -0.766 0.766 0.6428 49.7783 352.6294)" fill="none" stroke="#FFFFFF" stroke-width="1.7161" stroke-miterlimit="10" width="29.138" height="14.609"/>
	
		<rect x="126.31" y="252.292" transform="matrix(0.2079 -0.9781 0.9781 0.2079 -121.8092 367.0385)" fill="none" stroke="#FFFFFF" stroke-width="1.7161" stroke-miterlimit="10" width="78.826" height="12.878"/>
	
		<rect x="159.177" y="503.568" transform="matrix(-0.766 -0.6428 0.6428 -0.766 22.8913 1028.3447)" fill="none" stroke="#FFFFFF" stroke-width="1.7161" stroke-miterlimit="10" width="78.826" height="12.877"/>
	
		<rect x="274.593" y="202.026" transform="matrix(-0.848 -0.5299 0.5299 -0.848 469.8257 551.6514)" fill="none" stroke="#FFFFFF" stroke-width="1.7161" stroke-miterlimit="10" width="78.826" height="12.877"/>
	
		<rect x="71.116" y="79.886" fill="none" stroke="#FFFFFF" stroke-width="1.7161" stroke-miterlimit="10" width="14.609" height="58.436"/>
	
		<rect x="49.726" y="612.91" transform="matrix(-0.809 0.5878 -0.5878 -0.809 507.3638 1075.578)" fill="none" stroke="#FFFFFF" stroke-width="1.7161" stroke-miterlimit="10" width="58.436" height="14.609"/>
	
		<rect x="218.133" y="85.546" transform="matrix(-0.9135 -0.4067 0.4067 -0.9135 407.5209 272.3211)" fill="none" stroke="#FFFFFF" stroke-width="1.7161" stroke-miterlimit="10" width="29.139" height="14.609"/>
	
		<rect x="797.867" y="54.659" transform="matrix(-0.4067 0.9135 -0.9135 -0.4067 1199.4869 -655.0337)" fill="none" stroke="#FFFFFF" stroke-width="1.7161" stroke-miterlimit="10" width="29.139" height="14.609"/>
	
		<rect x="632.505" y="39.268" transform="matrix(-0.9135 -0.4067 0.4067 -0.9135 1219.2643 352.3041)" fill="none" stroke="#FFFFFF" stroke-width="1.7161" stroke-miterlimit="10" width="29.139" height="14.609"/>
	
		<rect x="1225.639" y="644.939" transform="matrix(0.9613 -0.2756 0.2756 0.9613 -131.7383 367.1098)" fill="none" stroke="#FFFFFF" stroke-width="1.7161" stroke-miterlimit="10" width="29.138" height="14.609"/>
	
		<rect x="38.289" y="241.161" transform="matrix(0.9613 -0.2756 0.2756 0.9613 -66.4379 24.1944)" fill="none" stroke="#FFFFFF" stroke-width="1.7161" stroke-miterlimit="10" width="29.138" height="14.609"/>
	
		<rect x="256.511" y="624.273" transform="matrix(0.1392 -0.9903 0.9903 0.1392 -392.5891 809.7941)" fill="none" stroke="#FFFFFF" stroke-width="1.7161" stroke-miterlimit="10" width="25.966" height="12.877"/>
	
		<rect x="343.64" y="750.818" transform="matrix(-0.4067 0.9135 -0.9135 -0.4067 1196.4863 739.2348)" fill="none" stroke="#FFFFFF" stroke-width="1.7161" stroke-miterlimit="10" width="29.139" height="14.609"/>
	
		<rect x="178.279" y="735.428" transform="matrix(-0.9135 -0.4067 0.4067 -0.9135 66.9301 1499.6903)" fill="none" stroke="#FFFFFF" stroke-width="1.7161" stroke-miterlimit="10" width="29.139" height="14.609"/>
</g>
<g id="Layer_2">
</g>
</svg>
